<?xml version="1.0" encoding="utf-8"?>
<!-- Generator: Adobe Illustrator 16.0.0, SVG Export Plug-In . SVG Version: 6.00 Build 0)  -->
<!DOCTYPE svg PUBLIC "-//W3C//DTD SVG 1.1//EN" "http://www.w3.org/Graphics/SVG/1.1/DTD/svg11.dtd">
<svg version="1.1" xmlns="http://www.w3.org/2000/svg" xmlns:xlink="http://www.w3.org/1999/xlink" x="0px" y="0px" width="560px"
	 height="560px" viewBox="0 0 560 560" enable-background="new 0 0 560 560" xml:space="preserve">
<g id="Layer_1">
</g>
<g id="Layer_2">
	<g>
		<path fill="#FFFFFF" d="M157.37,61.77c-50.16,0-90.83,40.67-90.83,90.83c0,50.16,40.67,90.82,90.83,90.82
			c14.351,0,27.92-3.32,39.979-9.25c13.34-6.55,24.84-16.279,33.5-28.199c10.91-14.98,17.341-33.421,17.341-53.371
			C248.19,102.44,207.529,61.77,157.37,61.77z M193.33,215.27c-10.59,6.09-22.87,9.57-35.96,9.57c-39.899,0-72.24-32.35-72.24-72.24
			c0-39.9,32.341-72.24,72.24-72.24c39.89,0,72.239,32.34,72.239,72.24c0,18.48-6.949,35.339-18.369,48.121L193.33,215.27z"/>
		
			<ellipse transform="matrix(1 0.0092 -0.0092 1 3.1382 -2.8502)" fill="#FFFFFF" cx="311.307" cy="339.613" rx="22.446" ry="21.968"/>
		<polygon fill="#FFFFFF" points="329.42,327.32 295.44,354.93 291.76,350.39 291.74,350.36 291.73,350.34 291.71,350.32 
			197.35,234.17 186.5,220.82 193.33,215.27 211.24,200.721 220.48,193.21 230.85,205.971 325.75,322.8 		"/>
		<path fill="#FFFFFF" d="M211.24,200.721c-5.141,5.75-11.19,10.68-17.91,14.549L211.24,200.721z"/>
	</g>
</g>
</svg>
